<?xml version="1.0" encoding="utf-8"?>
<!-- Generator: Adobe Illustrator 24.0.0, SVG Export Plug-In . SVG Version: 6.00 Build 0)  -->
<svg version="1.1" xmlns="http://www.w3.org/2000/svg" xmlns:xlink="http://www.w3.org/1999/xlink" x="0px" y="0px"
	 viewBox="0 0 50.6 50.6" style="enable-background:new 0 0 50.6 50.6;" xml:space="preserve">
<style type="text/css">
	.st0{fill:none;}
	.st2{fill:#C2B59B;}
	.st3{fill:#28AAE2;}
	.st4{fill:#A90056;}
	.st5{fill:#FBB040;}
</style>
<g id="Layer_1">
	<g>
		<g>
			<path class="st2" d="M45.2,27.3c0.8,0,1.4,0.6,1.4,1.4l0,0c0,0.8-0.6,1.4-1.4,1.4l0,0H32.3l0,0c0,0-0.1,0-0.1,0l0,0
				c-5-0.1-9.1-4.2-9.1-9.2l0,0c0-5,4.1-9.1,9.1-9.2l0,0c0,0,0,0,0.1,0l0,0h12.9c0.8,0,1.4,0.6,1.4,1.4l0,0c0,0.8-0.6,1.4-1.4,1.4
				l0,0H32.4c-3.5,0-6.4,2.9-6.4,6.4l0,0c0,3.5,2.9,6.4,6.4,6.4l0,0c0,0,0,0,0,0l0,0L45.2,27.3L45.2,27.3z"/>
		</g>
		<g>
			<path class="st3" d="M1.4,36.3c-0.8,0-1.4-0.6-1.4-1.4l0,0c0-0.8,0.6-1.4,1.4-1.4l0,0h12.9c3.5,0,6.4-2.9,6.4-6.4l0,0
				c0-3.5-2.9-6.4-6.4-6.4l0,0h0H1.4c-0.8,0-1.4-0.6-1.4-1.4l0,0c0-0.8,0.6-1.4,1.4-1.4l0,0l12.9,0c0.1,0,0.1,0,0.1,0l0,0
				c5,0.1,9,4.2,9,9.2l0,0c0,5-4.1,9.1-9.1,9.2l0,0c0,0,0,0-0.1,0l0,0L1.4,36.3L1.4,36.3z"/>
		</g>
		<g>
			<path class="st4" d="M14,14.4C14,14.4,14,14.4,14,14.4L14,14.4l0-13C14,0.6,14.6,0,15.4,0l0,0c0.8,0,1.4,0.6,1.4,1.4l0,0v12.9
				c0,3.5,2.9,6.3,6.4,6.4l0,0c3.5,0,6.4-2.9,6.4-6.4l0,0c0,0,0,0,0,0v0V1.4C29.6,0.6,30.2,0,31,0l0,0c0.8,0,1.4,0.6,1.4,1.4l0,0h0
				l0,12.9c0,0.1,0,0.2,0,0.2l0,0c-0.2,4.9-4.2,8.9-9.2,8.9l0,0C18.2,23.5,14.1,19.5,14,14.4L14,14.4z"/>
		</g>
		<g>
			<path class="st5" d="M33.4,49.2V36.3c0,0,0,0,0,0l0,0c0-3.5-2.9-6.4-6.4-6.4l0,0c-3.5,0-6.4,2.9-6.4,6.4l0,0c0,0,0,0,0,0.1l0,0
				v12.8c0,0.8-0.6,1.4-1.4,1.4l0,0c-0.8,0-1.4-0.6-1.4-1.4l0,0V36.2c0-0.1,0-0.1,0-0.1l0,0c0.1-5,4.2-9.1,9.2-9.1l0,0
				c5,0,9.1,4.1,9.2,9.1l0,0l0,0l0,0l0,0c0,0,0,0,0,0l0,0c0,0,0,0,0,0.1l0,0v12.9c0,0.8-0.6,1.4-1.4,1.4l0,0
				C34.1,50.6,33.4,50,33.4,49.2L33.4,49.2z"/>
		</g>
	</g>
</g>
</svg>
